<mxfile host="65bd71144e">
    <diagram id="x9lF7Ikh1Ne1HWIKREvB" name="Page-1">
        <mxGraphModel dx="1034" dy="717" grid="1" gridSize="10" guides="1" tooltips="1" connect="1" arrows="1" fold="1" page="1" pageScale="1" pageWidth="850" pageHeight="1100" math="0" shadow="0">
            <root>
                <mxCell id="0"/>
                <mxCell id="1" parent="0"/>
                <mxCell id="77" value="&lt;p style=&quot;&quot;&gt;&lt;span style=&quot;background-color: initial; font-family: LiberationSerif; font-size: 12pt;&quot;&gt;Please note the following numbers are for this exercise only as they are not real numbers&lt;/span&gt;&lt;br&gt;&lt;/p&gt;&lt;div title=&quot;Page 39&quot; class=&quot;page&quot;&gt;&lt;div class=&quot;layoutArea&quot;&gt;&lt;div class=&quot;column&quot;&gt;&lt;p&gt;&lt;span style=&quot;font-size: 12.000000pt; font-family: 'LiberationSerif'&quot;&gt;from Twitter.&lt;br&gt;&lt;/span&gt;&lt;/p&gt;&lt;br&gt;&#9;&#9;&#9;&#9;&#9;&lt;p&gt;&lt;span style=&quot;font-size: 12.000000pt; font-family: 'LiberationSerif'&quot;&gt;Assumptions:&lt;br&gt;&lt;br&gt;• 300 million monthly active users.&lt;br&gt;&lt;br&gt;• 50% of users use Twitter daily.&lt;br&gt;&lt;br&gt;• Users post 2 tweets per day on average.&amp;nbsp;&lt;/span&gt;&lt;/p&gt;&lt;p&gt;&lt;span style=&quot;font-size: 12.000000pt; font-family: 'LiberationSerif'&quot;&gt;• 10% of tweets contain media.&lt;br&gt;&lt;br&gt;• Data is stored for 5 years.&amp;nbsp;&lt;/span&gt;&lt;/p&gt;&lt;br&gt;&#9;&#9;&#9;&#9;&lt;/div&gt;&lt;br&gt;&#9;&#9;&#9;&lt;/div&gt;&lt;br&gt;&#9;&#9;&lt;/div&gt;&lt;p style=&quot;&quot;&gt;&lt;br&gt;&lt;/p&gt;&lt;p style=&quot;&quot;&gt;Calculate query per second&lt;br&gt;&lt;/p&gt;&lt;p style=&quot;&quot;&gt;&lt;span style=&quot;white-space: pre;&quot;&gt;&#9;&lt;/span&gt;Tweets per day = 300 million * 50% * 2 = 300 million tweets&lt;br&gt;&lt;/p&gt;&lt;p style=&quot;&quot;&gt;&lt;span style=&quot;white-space: pre;&quot;&gt;&#9;&lt;/span&gt;Query per second = 300 million / 24 / 3600 = 3500&lt;br&gt;&lt;/p&gt;&lt;p style=&quot;&quot;&gt;&lt;br&gt;&lt;/p&gt;&lt;div style=&quot;&quot;&gt;&lt;span style=&quot;background-color: initial;&quot;&gt;&lt;div style=&quot;&quot;&gt;&lt;span style=&quot;background-color: initial;&quot;&gt;Estimate media storage&lt;/span&gt;&lt;/div&gt;&lt;/span&gt;&lt;/div&gt;&lt;div style=&quot;&quot;&gt;&lt;/div&gt;" style="shape=note;whiteSpace=wrap;html=1;backgroundOutline=1;darkOpacity=0.05;fillStyle=solid;direction=west;gradientDirection=north;shadow=1;size=20;pointerEvents=1;align=left;verticalAlign=top;" vertex="1" parent="1">
                    <mxGeometry x="100" y="60" width="670" height="700" as="geometry"/>
                </mxCell>
            </root>
        </mxGraphModel>
    </diagram>
</mxfile>